<svg width="772" height="216" viewBox="0 0 772 216" fill="none" xmlns="http://www.w3.org/2000/svg">
<path d="M14.1824 141.912C11.5883 141.912 9.35253 141.246 7.4752 139.915C5.59787 138.584 4.1472 136.707 3.1232 134.283C2.13333 131.826 1.6384 128.975 1.6384 125.733C1.6384 123.002 1.8944 120.681 2.4064 118.77C2.95253 116.824 3.6864 115.22 4.608 113.957C5.5296 112.694 6.53653 111.704 7.6288 110.987C8.7552 110.27 9.86453 109.775 10.9568 109.502C12.0832 109.229 13.1072 109.093 14.0288 109.093C15.36 109.093 16.64 109.332 17.8688 109.81C19.0976 110.253 20.224 110.868 21.248 111.653C22.272 112.438 23.0741 113.394 23.6544 114.52L20.8896 116.978L20.48 117.336L20.224 117.029C20.2581 116.756 20.224 116.5 20.1216 116.261C20.0192 116.022 19.7803 115.68 19.4048 115.237C18.9269 114.691 18.432 114.247 17.92 113.906C17.408 113.53 16.8277 113.257 16.1792 113.086C15.5648 112.916 14.8651 112.83 14.08 112.83C13.1925 112.83 12.3392 112.95 11.52 113.189C10.7349 113.428 10.0011 113.854 9.3184 114.469C8.63573 115.049 8.0384 115.817 7.5264 116.773C7.0144 117.694 6.62187 118.855 6.3488 120.254C6.07573 121.62 5.9392 123.224 5.9392 125.067C5.9392 127.218 6.12693 129.112 6.5024 130.75C6.87787 132.389 7.424 133.771 8.1408 134.898C8.89173 135.99 9.76213 136.826 10.752 137.406C11.776 137.952 12.9195 138.226 14.1824 138.226C14.6261 138.226 15.0869 138.208 15.5648 138.174C16.0768 138.106 16.5717 138.004 17.0496 137.867C17.5616 137.696 18.0395 137.492 18.4832 137.253C18.9611 137.014 19.4048 136.741 19.8144 136.434V129.419H14.1824V125.733H23.7568V138.584C22.2549 139.71 20.6848 140.547 19.0464 141.093C17.4421 141.639 15.8208 141.912 14.1824 141.912ZM31.1808 117.848H35.7376L35.6352 124.606L35.072 123.992C35.2768 122.934 35.6181 121.995 36.096 121.176C36.608 120.357 37.2053 119.657 37.888 119.077C38.6048 118.496 39.3899 118.053 40.2432 117.746C41.0965 117.438 41.984 117.285 42.9056 117.285C44.1685 117.285 45.312 117.507 46.336 117.95C47.3941 118.36 48.3499 119.008 49.2032 119.896L47.3088 123.429L47.104 123.89L46.7456 123.685C46.6432 123.412 46.5237 123.156 46.3872 122.917C46.2848 122.644 46.0117 122.336 45.568 121.995C45.056 121.62 44.5611 121.364 44.0832 121.227C43.6053 121.091 43.0592 121.022 42.4448 121.022C41.6256 121.022 40.8064 121.176 39.9872 121.483C39.168 121.79 38.4171 122.268 37.7344 122.917C37.0859 123.565 36.5739 124.402 36.1984 125.426C35.8229 126.415 35.6352 127.593 35.6352 128.958V141.451H31.1808V117.848ZM64 141.861C61.8837 141.861 59.9893 141.349 58.3168 140.325C56.6784 139.267 55.3813 137.816 54.4256 135.973C53.4699 134.13 52.992 132.013 52.992 129.624C52.992 127.235 53.4699 125.118 54.4256 123.275C55.3813 121.432 56.6784 119.981 58.3168 118.923C59.9893 117.865 61.8837 117.336 64 117.336C66.1163 117.336 67.9936 117.865 69.632 118.923C71.3045 119.981 72.6187 121.432 73.5744 123.275C74.5301 125.118 75.008 127.235 75.008 129.624C75.008 132.013 74.5301 134.13 73.5744 135.973C72.6187 137.816 71.3045 139.267 69.632 140.325C67.9936 141.349 66.1163 141.861 64 141.861ZM64 138.277C65.2629 138.277 66.3723 137.901 67.328 137.15C68.2837 136.399 69.0347 135.375 69.5808 134.078C70.1611 132.781 70.4512 131.279 70.4512 129.573C70.4512 127.866 70.1611 126.364 69.5808 125.067C69.0347 123.77 68.2837 122.763 67.328 122.046C66.3723 121.295 65.2629 120.92 64 120.92C62.7712 120.92 61.6619 121.295 60.672 122.046C59.7163 122.763 58.9483 123.77 58.368 125.067C57.8219 126.364 57.5488 127.866 57.5488 129.573C57.5488 131.279 57.8219 132.781 58.368 134.078C58.9141 135.375 59.6651 136.399 60.6208 137.15C61.6107 137.901 62.7371 138.277 64 138.277ZM89.8048 141.912C88.4395 141.912 87.1424 141.775 85.9136 141.502C84.6848 141.263 83.5413 140.871 82.4832 140.325C81.4251 139.744 80.4352 139.045 79.5136 138.226L81.7152 134.334L82.0224 133.874L82.3296 134.078C82.432 134.351 82.5173 134.642 82.5856 134.949C82.688 135.222 82.9269 135.563 83.3024 135.973C84.0875 136.69 84.992 137.27 86.016 137.714C87.04 138.157 88.3371 138.379 89.9072 138.379C91.0677 138.379 92.0405 138.243 92.8256 137.97C93.6448 137.662 94.2592 137.27 94.6688 136.792C95.1125 136.28 95.3344 135.683 95.3344 135C95.3344 134.522 95.232 134.112 95.0272 133.771C94.8224 133.396 94.4981 133.054 94.0544 132.747C93.6107 132.44 93.0133 132.133 92.2624 131.826C91.5115 131.484 90.6069 131.16 89.5488 130.853C87.808 130.341 86.272 129.76 84.9408 129.112C83.6437 128.429 82.6368 127.627 81.92 126.706C81.2032 125.784 80.8448 124.726 80.8448 123.531C80.8448 122.268 81.1861 121.176 81.8688 120.254C82.5856 119.333 83.5925 118.616 84.8896 118.104C86.2208 117.558 87.8251 117.285 89.7024 117.285C90.7605 117.285 91.7333 117.37 92.6208 117.541C93.5083 117.677 94.3275 117.899 95.0784 118.206C95.8635 118.514 96.5803 118.906 97.2288 119.384C97.9115 119.828 98.5429 120.357 99.1232 120.971L96.768 123.992L96.4096 124.402L96.1536 124.146C96.1195 123.872 96.0341 123.616 95.8976 123.378C95.7952 123.104 95.5392 122.78 95.1296 122.405C94.3787 121.824 93.5253 121.381 92.5696 121.074C91.648 120.766 90.7264 120.613 89.8048 120.613C88.5077 120.613 87.3813 120.835 86.4256 121.278C85.504 121.722 85.0432 122.405 85.0432 123.326C85.0432 123.838 85.2309 124.316 85.6064 124.76C85.9819 125.204 86.6304 125.647 87.552 126.091C88.4736 126.535 89.7707 126.979 91.4432 127.422C93.3547 128.003 94.9077 128.617 96.1024 129.266C97.2971 129.914 98.1675 130.665 98.7136 131.518C99.2597 132.372 99.5328 133.379 99.5328 134.539C99.5328 135.836 99.1744 137.065 98.4576 138.226C97.7408 139.352 96.6485 140.256 95.1808 140.939C93.7472 141.588 91.9552 141.912 89.8048 141.912ZM115.405 141.912C114.039 141.912 112.742 141.775 111.514 141.502C110.285 141.263 109.141 140.871 108.083 140.325C107.025 139.744 106.035 139.045 105.114 138.226L107.315 134.334L107.622 133.874L107.93 134.078C108.032 134.351 108.117 134.642 108.186 134.949C108.288 135.222 108.527 135.563 108.902 135.973C109.687 136.69 110.592 137.27 111.616 137.714C112.64 138.157 113.937 138.379 115.507 138.379C116.668 138.379 117.641 138.243 118.426 137.97C119.245 137.662 119.859 137.27 120.269 136.792C120.713 136.28 120.934 135.683 120.934 135C120.934 134.522 120.832 134.112 120.627 133.771C120.422 133.396 120.098 133.054 119.654 132.747C119.211 132.44 118.613 132.133 117.862 131.826C117.111 131.484 116.207 131.16 115.149 130.853C113.408 130.341 111.872 129.76 110.541 129.112C109.244 128.429 108.237 127.627 107.52 126.706C106.803 125.784 106.445 124.726 106.445 123.531C106.445 122.268 106.786 121.176 107.469 120.254C108.186 119.333 109.193 118.616 110.49 118.104C111.821 117.558 113.425 117.285 115.302 117.285C116.361 117.285 117.333 117.37 118.221 117.541C119.108 117.677 119.927 117.899 120.678 118.206C121.463 118.514 122.18 118.906 122.829 119.384C123.511 119.828 124.143 120.357 124.723 120.971L122.368 123.992L122.01 124.402L121.754 124.146C121.719 123.872 121.634 123.616 121.498 123.378C121.395 123.104 121.139 122.78 120.73 122.405C119.979 121.824 119.125 121.381 118.17 121.074C117.248 120.766 116.326 120.613 115.405 120.613C114.108 120.613 112.981 120.835 112.026 121.278C111.104 121.722 110.643 122.405 110.643 123.326C110.643 123.838 110.831 124.316 111.206 124.76C111.582 125.204 112.23 125.647 113.152 126.091C114.074 126.535 115.371 126.979 117.043 127.422C118.955 128.003 120.508 128.617 121.702 129.266C122.897 129.914 123.767 130.665 124.314 131.518C124.86 132.372 125.133 133.379 125.133 134.539C125.133 135.836 124.774 137.065 124.058 138.226C123.341 139.352 122.249 140.256 120.781 140.939C119.347 141.588 117.555 141.912 115.405 141.912ZM159.181 141.4L154.368 109.502H158.259L161.229 130.546L166.042 111.909H167.782L172.595 130.597L175.104 109.502H178.688L173.926 141.4H171.827L166.656 120.971L161.382 141.4H159.181ZM182.016 141.4V109.502H192.461C194.884 109.502 196.847 109.929 198.349 110.782C199.885 111.602 201.011 112.694 201.728 114.059C202.445 115.424 202.803 116.943 202.803 118.616C202.803 119.879 202.598 121.056 202.189 122.149C201.813 123.207 201.216 124.146 200.397 124.965C199.578 125.784 198.537 126.432 197.274 126.91C196.011 127.354 194.492 127.576 192.717 127.576H186.47V141.4H182.016ZM186.47 123.838H192.307C193.741 123.838 194.901 123.634 195.789 123.224C196.676 122.78 197.325 122.166 197.734 121.381C198.144 120.596 198.349 119.708 198.349 118.718C198.349 117.728 198.144 116.841 197.734 116.056C197.325 115.271 196.676 114.639 195.789 114.162C194.901 113.684 193.758 113.445 192.358 113.445H186.47V123.838ZM206.746 141.4V109.502H210.33L217.651 124.811L225.075 109.451H228.557V141.4H224.614V117.95L218.368 130.392H216.474L210.637 118.053V141.4H206.746ZM258.253 121.688V118.104H279.45V121.688H258.253ZM258.253 132.338V128.754H279.45V132.338H258.253Z" fill="#025464"/>
<path d="M357.648 111.05C351.982 108.319 347.135 104.735 343.107 100.298C339.08 95.792 336.008 90.7402 333.891 85.1424C331.775 79.5445 330.717 73.7077 330.717 67.632C330.717 61.5562 331.741 55.7877 333.789 50.3264C335.905 44.865 338.909 39.9498 342.8 35.5808C346.76 31.2117 351.504 27.7301 357.034 25.136L358.263 29.5392C354.781 31.3824 351.641 33.6693 348.842 36.4C346.043 39.1306 343.653 42.1685 341.674 45.5136C339.762 48.8586 338.294 52.4426 337.27 56.2656C336.246 60.0202 335.734 63.9114 335.734 67.9392C335.734 71.8986 336.246 75.7898 337.27 79.6128C338.363 83.4357 339.899 87.0538 341.878 90.4672C343.927 93.8805 346.384 96.9866 349.251 99.7856C352.119 102.516 355.327 104.837 358.877 106.749L357.648 111.05Z" fill="#025464"/>
<path d="M726.019 110.05L724.79 105.749C728.409 103.837 731.617 101.516 734.416 98.7856C737.283 95.9866 739.707 92.8805 741.686 89.4672C743.734 86.0538 745.305 82.4357 746.397 78.6128C747.489 74.7898 748.035 70.8986 748.035 66.9392C748.035 62.9114 747.489 59.0202 746.397 55.2656C745.373 51.4426 743.871 47.8586 741.891 44.5136C739.98 41.1685 737.625 38.1306 734.826 35.4C732.027 32.6693 728.886 30.3824 725.405 28.5392L726.634 24.136C732.163 26.7301 736.874 30.2117 740.765 34.5808C744.724 38.9498 747.728 43.865 749.776 49.3264C751.892 54.7877 752.95 60.5562 752.95 66.632C752.95 72.7077 751.892 78.5445 749.776 84.1424C747.66 89.7402 744.588 94.792 740.56 99.2976C736.532 103.735 731.685 107.319 726.019 110.05Z" fill="#025464"/>
<path d="M425.543 187V158.84H416.634V155.051H439.111V158.84H429.843V187H425.543ZM445.664 187V183.518H451.603V166.981H445.971V163.448H456.007V183.518H461.434V187H445.664ZM453.549 158.891C452.73 158.891 452.03 158.601 451.45 158.021C450.87 157.441 450.579 156.758 450.579 155.973C450.579 155.119 450.852 154.42 451.399 153.874C451.979 153.327 452.696 153.054 453.549 153.054C454.334 153.054 455.017 153.345 455.597 153.925C456.211 154.505 456.519 155.188 456.519 155.973C456.519 156.758 456.211 157.441 455.597 158.021C455.017 158.601 454.334 158.891 453.549 158.891ZM468.192 187V163.448H472.083V165.598C472.459 165.018 472.886 164.54 473.363 164.165C473.841 163.755 474.353 163.448 474.899 163.243C475.48 163.004 476.06 162.885 476.64 162.885C477.289 162.885 477.886 163.021 478.432 163.294C479.012 163.533 479.49 163.909 479.866 164.421C480.275 164.899 480.566 165.479 480.736 166.162C481.078 165.479 481.504 164.899 482.016 164.421C482.528 163.943 483.126 163.567 483.808 163.294C484.491 163.021 485.208 162.885 485.959 162.885C486.778 162.885 487.478 163.038 488.058 163.346C488.638 163.653 489.116 164.079 489.491 164.626C489.901 165.172 490.191 165.837 490.362 166.622C490.532 167.407 490.601 168.261 490.567 169.182V187H486.624V170.514C486.624 169.217 486.539 168.261 486.368 167.646C486.232 166.998 486.01 166.588 485.703 166.418C485.43 166.213 485.088 166.11 484.679 166.11C484.098 166.11 483.552 166.383 483.04 166.93C482.528 167.442 482.102 168.124 481.76 168.978C481.453 169.797 481.299 170.667 481.299 171.589V187H477.459V170.77C477.459 168.926 477.289 167.698 476.947 167.083C476.64 166.469 476.06 166.162 475.207 166.162C474.831 166.162 474.456 166.281 474.08 166.52C473.739 166.759 473.415 167.1 473.107 167.544C472.834 167.954 472.595 168.5 472.391 169.182C472.22 169.831 472.135 170.565 472.135 171.384V187H468.192ZM505.927 187.512C504.22 187.512 502.65 187.256 501.216 186.744C499.817 186.198 498.588 185.413 497.53 184.389C496.506 183.365 495.721 182.085 495.175 180.549C494.628 179.013 494.355 177.272 494.355 175.326C494.355 173.347 494.628 171.589 495.175 170.053C495.755 168.517 496.54 167.22 497.53 166.162C498.52 165.103 499.68 164.301 501.011 163.755C502.343 163.175 503.759 162.885 505.261 162.885C506.592 162.885 507.855 163.124 509.05 163.602C510.244 164.045 511.268 164.728 512.122 165.65C513.009 166.571 513.709 167.749 514.221 169.182C514.733 170.582 514.989 172.237 514.989 174.149C514.989 174.456 514.972 174.797 514.938 175.173C514.938 175.514 514.921 175.821 514.887 176.094H498.554C498.622 177.494 498.861 178.706 499.271 179.73C499.714 180.719 500.278 181.539 500.96 182.187C501.643 182.802 502.411 183.262 503.264 183.57C504.152 183.877 505.09 184.03 506.08 184.03C506.865 184.03 507.599 183.945 508.282 183.774C508.999 183.604 509.664 183.331 510.279 182.955C510.893 182.58 511.456 182.119 511.968 181.573L514.323 183.826C513.641 184.645 512.856 185.345 511.968 185.925C511.115 186.471 510.176 186.863 509.152 187.102C508.162 187.375 507.087 187.512 505.927 187.512ZM498.707 172.766H510.637C510.637 171.742 510.5 170.838 510.227 170.053C509.954 169.268 509.579 168.585 509.101 168.005C508.623 167.425 508.026 166.998 507.309 166.725C506.626 166.418 505.858 166.264 505.005 166.264C504.22 166.264 503.486 166.401 502.803 166.674C502.121 166.913 501.489 167.305 500.909 167.851C500.363 168.397 499.885 169.08 499.475 169.899C499.1 170.684 498.844 171.64 498.707 172.766ZM563.424 192.376C560.455 191.011 557.895 189.219 555.744 187C553.594 184.747 551.955 182.221 550.829 179.422C549.703 176.589 549.139 173.654 549.139 170.616C549.139 167.578 549.703 164.694 550.829 161.963C551.955 159.198 553.56 156.741 555.642 154.59C557.724 152.406 560.216 150.648 563.117 149.317L564.243 153.003C562.605 153.891 561.12 154.966 559.789 156.229C558.458 157.458 557.314 158.84 556.359 160.376C555.403 161.878 554.669 163.516 554.157 165.291C553.645 167.032 553.389 168.858 553.389 170.77C553.389 172.681 553.645 174.524 554.157 176.299C554.703 178.074 555.454 179.747 556.41 181.317C557.4 182.887 558.577 184.303 559.943 185.566C561.308 186.829 562.861 187.905 564.602 188.792L563.424 192.376ZM570.592 187V163.448H574.483V165.598C574.859 165.018 575.286 164.54 575.763 164.165C576.241 163.755 576.753 163.448 577.299 163.243C577.88 163.004 578.46 162.885 579.04 162.885C579.689 162.885 580.286 163.021 580.832 163.294C581.412 163.533 581.89 163.909 582.266 164.421C582.675 164.899 582.966 165.479 583.136 166.162C583.478 165.479 583.904 164.899 584.416 164.421C584.928 163.943 585.526 163.567 586.208 163.294C586.891 163.021 587.608 162.885 588.359 162.885C589.178 162.885 589.878 163.038 590.458 163.346C591.038 163.653 591.516 164.079 591.891 164.626C592.301 165.172 592.591 165.837 592.762 166.622C592.932 167.407 593.001 168.261 592.967 169.182V187H589.024V170.514C589.024 169.217 588.939 168.261 588.768 167.646C588.632 166.998 588.41 166.588 588.103 166.418C587.83 166.213 587.488 166.11 587.079 166.11C586.498 166.11 585.952 166.383 585.44 166.93C584.928 167.442 584.502 168.124 584.16 168.978C583.853 169.797 583.699 170.667 583.699 171.589V187H579.859V170.77C579.859 168.926 579.689 167.698 579.347 167.083C579.04 166.469 578.46 166.162 577.607 166.162C577.231 166.162 576.856 166.281 576.48 166.52C576.139 166.759 575.815 167.1 575.507 167.544C575.234 167.954 574.995 168.5 574.791 169.182C574.62 169.831 574.535 170.565 574.535 171.384V187H570.592ZM599.264 187V183.518H605.203V166.981H599.571V163.448H609.607V183.518H615.034V187H599.264ZM607.149 158.891C606.33 158.891 605.63 158.601 605.05 158.021C604.47 157.441 604.179 156.758 604.179 155.973C604.179 155.119 604.452 154.42 604.999 153.874C605.579 153.327 606.296 153.054 607.149 153.054C607.934 153.054 608.617 153.345 609.197 153.925C609.811 154.505 610.119 155.188 610.119 155.973C610.119 156.758 609.811 157.441 609.197 158.021C608.617 158.601 607.934 158.891 607.149 158.891ZM623.379 187V163.448H627.731V167.339C628.312 166.452 628.994 165.684 629.779 165.035C630.564 164.353 631.418 163.823 632.339 163.448C633.295 163.073 634.285 162.885 635.309 162.885C636.64 162.885 637.835 163.226 638.893 163.909C639.951 164.557 640.804 165.598 641.453 167.032C642.102 168.466 642.426 170.377 642.426 172.766V187H638.125V172.869C638.125 171.333 637.954 170.104 637.613 169.182C637.272 168.261 636.794 167.595 636.179 167.186C635.565 166.742 634.865 166.52 634.08 166.52C633.363 166.52 632.63 166.691 631.879 167.032C631.128 167.339 630.428 167.783 629.779 168.363C629.165 168.943 628.67 169.66 628.295 170.514C627.919 171.333 627.731 172.254 627.731 173.278V187H623.379ZM652.41 192.376L651.232 188.792C652.973 187.905 654.526 186.829 655.891 185.566C657.257 184.303 658.417 182.887 659.373 181.317C660.363 179.747 661.114 178.074 661.626 176.299C662.172 174.524 662.445 172.681 662.445 170.77C662.445 168.858 662.189 167.032 661.677 165.291C661.165 163.516 660.431 161.878 659.475 160.376C658.52 158.84 657.376 157.458 656.045 156.229C654.714 154.966 653.229 153.891 651.591 153.003L652.717 149.317C655.618 150.648 658.11 152.406 660.192 154.59C662.274 156.741 663.879 159.198 665.005 161.963C666.131 164.694 666.695 167.578 666.695 170.616C666.695 173.654 666.131 176.589 665.005 179.422C663.879 182.221 662.24 184.747 660.09 187C657.939 189.219 655.379 191.011 652.41 192.376Z" fill="#025464"/>
<path d="M393.939 35.9328H384.838L385.414 33.2064H393.286L393.939 35.9328ZM389.6 25.2192L384.262 42H380.538L388.87 17.808H390.368L398.701 42H394.861L389.6 25.2192ZM401.811 42V38.9664H406.88V19.344H402.042V16.3104H410.758V38.9664H415.789V42H401.811ZM421.011 42V38.9664H426.08V19.344H421.242V16.3104H429.958V38.9664H434.989V42H421.011ZM468.282 42.3456C467.232 42.3456 466.323 42.1792 465.555 41.8464C464.813 41.488 464.211 40.9248 463.75 40.1568C463.315 39.3888 463.008 38.3904 462.829 37.1616C462.65 35.9328 462.586 34.4352 462.637 32.6688L463.136 19.92L467.053 19.4208L467.437 19.3824L467.475 19.728C467.347 19.9072 467.232 20.0864 467.13 20.2656C467.053 20.4448 466.989 20.752 466.938 21.1872L466.554 26.1408L466.707 26.5632L466.438 32.6688C466.362 34.4096 466.413 35.7664 466.592 36.7392C466.771 37.6864 467.078 38.352 467.514 38.736C467.949 39.0944 468.474 39.2736 469.088 39.2736C469.907 39.2736 470.637 39.1072 471.277 38.7744C471.942 38.4416 472.595 38.032 473.235 37.5456L474.08 40.3872C473.21 41.0272 472.301 41.5136 471.354 41.8464C470.406 42.1792 469.382 42.3456 468.282 42.3456ZM459.181 24.2208H472.582L472.544 27.2928H459.181V24.2208ZM480.838 48.72C479.994 48.72 479.238 48.5792 478.573 48.2976C477.907 48.0416 477.267 47.6448 476.653 47.1072L478.074 44.496L478.266 44.1888L478.534 44.3424C478.611 44.5216 478.701 44.688 478.803 44.8416C478.931 45.0208 479.174 45.2384 479.533 45.4944C479.738 45.5712 479.955 45.6224 480.186 45.648C480.416 45.6992 480.646 45.7248 480.877 45.7248C481.466 45.7248 481.965 45.5712 482.374 45.264C482.784 44.9824 483.142 44.5344 483.45 43.92C483.782 43.3056 484.115 42.512 484.448 41.5392L488.134 30.7872C488.518 29.6608 488.851 28.5728 489.133 27.5232C489.44 26.448 489.632 25.3472 489.709 24.2208H493.318C493.216 25.3984 492.947 26.6144 492.512 27.8688C492.102 29.1232 491.68 30.3392 491.245 31.5168L486.829 43.6896C486.163 45.5584 485.331 46.864 484.333 47.6064C483.334 48.3488 482.17 48.72 480.838 48.72ZM477.382 24.2208H481.261L486.637 38.1984L484.717 42.4224L477.382 24.2208ZM497.197 48.4128V24.2208H500.998V27.0624C501.331 26.2944 501.754 25.68 502.266 25.2192C502.803 24.7328 503.392 24.3872 504.032 24.1824C504.672 23.952 505.363 23.8368 506.106 23.8368C507.078 23.8368 507.987 24.0416 508.832 24.4512C509.702 24.8352 510.47 25.4112 511.136 26.1792C511.802 26.9472 512.326 27.9072 512.71 29.0592C513.094 30.2112 513.286 31.5552 513.286 33.0912C513.286 34.6528 513.082 36.0224 512.672 37.2C512.262 38.3776 511.712 39.3632 511.021 40.1568C510.355 40.9248 509.587 41.5008 508.717 41.8848C507.846 42.2688 506.95 42.4608 506.029 42.4608C505.389 42.4608 504.749 42.3712 504.109 42.192C503.494 42.0384 502.931 41.7952 502.419 41.4624C501.907 41.104 501.459 40.6944 501.075 40.2336V48.4128H497.197ZM505.069 39.3888C505.658 39.3888 506.208 39.2864 506.72 39.0816C507.232 38.8512 507.693 38.5056 508.102 38.0448C508.512 37.5584 508.832 36.9056 509.062 36.0864C509.293 35.2416 509.408 34.2176 509.408 33.0144C509.408 31.7344 509.242 30.6464 508.909 29.7504C508.602 28.8544 508.141 28.1632 507.526 27.6768C506.938 27.1904 506.221 26.9344 505.376 26.9088C504.736 26.8832 504.147 26.9984 503.61 27.2544C503.072 27.4848 502.611 27.8688 502.227 28.4064C501.843 28.9184 501.549 29.6096 501.344 30.48C501.165 31.3248 501.075 32.336 501.075 33.5136C501.075 34.3072 501.126 35.024 501.229 35.664C501.357 36.2784 501.536 36.8288 501.766 37.3152C501.997 37.776 502.266 38.16 502.573 38.4672C502.906 38.7744 503.277 39.0048 503.686 39.1584C504.122 39.312 504.582 39.3888 505.069 39.3888ZM524.806 42.4224C523.526 42.4224 522.349 42.2176 521.274 41.808C520.198 41.3984 519.264 40.8096 518.47 40.0416C517.702 39.248 517.101 38.2752 516.666 37.1232C516.23 35.9712 516.013 34.6656 516.013 33.2064C516.013 31.7216 516.23 30.4032 516.666 29.2512C517.101 28.0736 517.69 27.088 518.432 26.2944C519.2 25.5008 520.083 24.8864 521.082 24.4512C522.106 24.016 523.194 23.7984 524.346 23.7984C525.344 23.7984 526.291 23.9776 527.187 24.336C528.109 24.6944 528.902 25.232 529.568 25.9488C530.259 26.64 530.797 27.5232 531.181 28.5984C531.59 29.6736 531.795 30.928 531.795 32.3616C531.795 32.6176 531.795 32.912 531.795 33.2448C531.795 33.552 531.782 33.8208 531.757 34.0512H519.699C519.75 34.9728 519.93 35.7792 520.237 36.4704C520.544 37.136 520.928 37.6864 521.389 38.1216C521.875 38.5568 522.426 38.8768 523.04 39.0816C523.654 39.2864 524.294 39.3888 524.96 39.3888C525.549 39.3888 526.086 39.3376 526.573 39.2352C527.085 39.1072 527.571 38.9152 528.032 38.6592C528.493 38.4032 528.915 38.0576 529.299 37.6224L531.296 39.5808C530.758 40.2208 530.157 40.7584 529.491 41.1936C528.826 41.6032 528.096 41.9104 527.302 42.1152C526.534 42.32 525.702 42.4224 524.806 42.4224ZM519.776 31.1712H528.07C528.07 30.4544 527.981 29.8272 527.802 29.2896C527.622 28.752 527.354 28.2912 526.995 27.9072C526.662 27.5232 526.253 27.2416 525.766 27.0624C525.28 26.8576 524.742 26.7552 524.154 26.7552C523.59 26.7552 523.066 26.8448 522.579 27.024C522.118 27.2032 521.696 27.472 521.312 27.8304C520.928 28.1888 520.595 28.6496 520.314 29.2128C520.058 29.7504 519.878 30.4032 519.776 31.1712ZM542.355 42.4224C541.408 42.4224 540.486 42.2304 539.59 41.8464C538.72 41.4368 537.939 40.848 537.248 40.08C536.557 39.312 536.006 38.3392 535.597 37.1616C535.213 35.9584 535.021 34.576 535.021 33.0144C535.021 31.4272 535.213 30.0576 535.597 28.9056C536.006 27.7536 536.557 26.8064 537.248 26.064C537.939 25.296 538.733 24.7328 539.629 24.3744C540.525 23.9904 541.459 23.7984 542.432 23.7984C543.123 23.7984 543.75 23.888 544.314 24.0672C544.902 24.2464 545.427 24.5152 545.888 24.8736C546.349 25.232 546.72 25.68 547.002 26.2176V16.3104H550.726H551.072V16.656C550.944 16.8096 550.854 16.976 550.803 17.1552C550.752 17.3344 550.739 17.6416 550.765 18.0768V39.504C550.765 39.9136 550.778 40.336 550.803 40.7712C550.854 41.1808 550.97 41.5904 551.149 42H547.386C547.258 41.7184 547.168 41.4624 547.117 41.232C547.066 41.0016 547.04 40.7712 547.04 40.5408C547.04 40.3104 547.04 40.0672 547.04 39.8112C546.682 40.3488 546.272 40.8224 545.811 41.232C545.35 41.616 544.826 41.9104 544.237 42.1152C543.648 42.32 543.021 42.4224 542.355 42.4224ZM543.008 39.2736C543.699 39.2736 544.288 39.1328 544.774 38.8512C545.261 38.5696 545.658 38.16 545.965 37.6224C546.272 37.0848 546.502 36.432 546.656 35.664C546.81 34.896 546.886 34.0256 546.886 33.0528C546.886 31.7472 546.746 30.6336 546.464 29.712C546.182 28.7648 545.734 28.048 545.12 27.5616C544.531 27.0496 543.776 26.7936 542.854 26.7936C542.189 26.7936 541.6 26.9344 541.088 27.216C540.576 27.4976 540.141 27.9072 539.782 28.4448C539.45 28.9568 539.194 29.584 539.014 30.3264C538.835 31.0688 538.746 31.9008 538.746 32.8224C538.746 34.128 538.925 35.2672 539.283 36.24C539.667 37.2128 540.179 37.968 540.819 38.5056C541.459 39.0176 542.189 39.2736 543.008 39.2736ZM582.406 42.4224C581.126 42.4224 579.949 42.2176 578.874 41.808C577.798 41.3984 576.864 40.8096 576.07 40.0416C575.302 39.248 574.701 38.2752 574.266 37.1232C573.83 35.9712 573.613 34.6656 573.613 33.2064C573.613 31.7216 573.83 30.4032 574.266 29.2512C574.701 28.0736 575.29 27.088 576.032 26.2944C576.8 25.5008 577.683 24.8864 578.682 24.4512C579.706 24.016 580.794 23.7984 581.946 23.7984C582.944 23.7984 583.891 23.9776 584.787 24.336C585.709 24.6944 586.502 25.232 587.168 25.9488C587.859 26.64 588.397 27.5232 588.781 28.5984C589.19 29.6736 589.395 30.928 589.395 32.3616C589.395 32.6176 589.395 32.912 589.395 33.2448C589.395 33.552 589.382 33.8208 589.357 34.0512H577.299C577.35 34.9728 577.53 35.7792 577.837 36.4704C578.144 37.136 578.528 37.6864 578.989 38.1216C579.475 38.5568 580.026 38.8768 580.64 39.0816C581.254 39.2864 581.894 39.3888 582.56 39.3888C583.149 39.3888 583.686 39.3376 584.173 39.2352C584.685 39.1072 585.171 38.9152 585.632 38.6592C586.093 38.4032 586.515 38.0576 586.899 37.6224L588.896 39.5808C588.358 40.2208 587.757 40.7584 587.091 41.1936C586.426 41.6032 585.696 41.9104 584.902 42.1152C584.134 42.32 583.302 42.4224 582.406 42.4224ZM577.376 31.1712H585.67C585.67 30.4544 585.581 29.8272 585.402 29.2896C585.222 28.752 584.954 28.2912 584.595 27.9072C584.262 27.5232 583.853 27.2416 583.366 27.0624C582.88 26.8576 582.342 26.7552 581.754 26.7552C581.19 26.7552 580.666 26.8448 580.179 27.024C579.718 27.2032 579.296 27.472 578.912 27.8304C578.528 28.1888 578.195 28.6496 577.914 29.2128C577.658 29.7504 577.478 30.4032 577.376 31.1712ZM593.504 42V24.2208H597.344V26.9472C597.779 26.3072 598.266 25.7568 598.803 25.296C599.341 24.8352 599.942 24.4768 600.608 24.2208C601.274 23.9392 601.99 23.7984 602.758 23.7984C603.757 23.7984 604.678 24.0544 605.523 24.5664C606.368 25.0784 607.046 25.8848 607.558 26.9856C608.07 28.0608 608.326 29.4944 608.326 31.2864V42H604.525V31.3248C604.525 30.2752 604.41 29.4176 604.179 28.752C603.949 28.0864 603.616 27.6 603.181 27.2928C602.771 26.9856 602.272 26.832 601.683 26.832C601.171 26.832 600.659 26.9472 600.147 27.1776C599.635 27.408 599.162 27.728 598.726 28.1376C598.317 28.5216 597.984 29.008 597.728 29.5968C597.472 30.16 597.344 30.8 597.344 31.5168V42H593.504ZM621.882 42.3456C620.832 42.3456 619.923 42.1792 619.155 41.8464C618.413 41.488 617.811 40.9248 617.35 40.1568C616.915 39.3888 616.608 38.3904 616.429 37.1616C616.25 35.9328 616.186 34.4352 616.237 32.6688L616.736 19.92L620.653 19.4208L621.037 19.3824L621.075 19.728C620.947 19.9072 620.832 20.0864 620.73 20.2656C620.653 20.4448 620.589 20.752 620.538 21.1872L620.154 26.1408L620.307 26.5632L620.038 32.6688C619.962 34.4096 620.013 35.7664 620.192 36.7392C620.371 37.6864 620.678 38.352 621.114 38.736C621.549 39.0944 622.074 39.2736 622.688 39.2736C623.507 39.2736 624.237 39.1072 624.877 38.7744C625.542 38.4416 626.195 38.032 626.835 37.5456L627.68 40.3872C626.81 41.0272 625.901 41.5136 624.954 41.8464C624.006 42.1792 622.982 42.3456 621.882 42.3456ZM612.781 24.2208H626.182L626.144 27.2928H612.781V24.2208ZM633.402 24.2208H637.357L637.28 29.2896L636.819 28.8672C636.947 28.0992 637.19 27.408 637.549 26.7936C637.907 26.1536 638.342 25.616 638.854 25.1808C639.392 24.7456 639.981 24.4128 640.621 24.1824C641.261 23.9264 641.926 23.7984 642.618 23.7984C643.59 23.7984 644.474 23.9648 645.267 24.2976C646.061 24.6304 646.778 25.1296 647.418 25.7952L645.805 28.944L645.651 29.2896L645.344 29.136C645.267 28.9312 645.19 28.7264 645.114 28.5216C645.037 28.3168 644.845 28.0736 644.538 27.792C644.154 27.536 643.77 27.344 643.386 27.216C643.027 27.088 642.605 27.024 642.118 27.024C641.504 27.024 640.902 27.1392 640.314 27.3696C639.75 27.5744 639.238 27.9072 638.778 28.368C638.317 28.8288 637.946 29.4176 637.664 30.1344C637.408 30.8256 637.28 31.6704 637.28 32.6688V42.0384H633.402V24.2208ZM652.256 42V38.9664H656.672V27.2544H652.448V24.2208H660.512V38.9664H664.544V42H652.256ZM658.362 21.0336C657.67 21.0336 657.082 20.8032 656.595 20.3424C656.134 19.856 655.904 19.2928 655.904 18.6528C655.904 17.9616 656.134 17.3856 656.595 16.9248C657.056 16.464 657.645 16.2336 658.362 16.2336C659.027 16.2336 659.603 16.4768 660.09 16.9632C660.602 17.4496 660.858 18.0128 660.858 18.6528C660.858 19.2928 660.602 19.856 660.09 20.3424C659.603 20.8032 659.027 21.0336 658.362 21.0336ZM678.406 42.4224C677.126 42.4224 675.949 42.2176 674.874 41.808C673.798 41.3984 672.864 40.8096 672.07 40.0416C671.302 39.248 670.701 38.2752 670.266 37.1232C669.83 35.9712 669.613 34.6656 669.613 33.2064C669.613 31.7216 669.83 30.4032 670.266 29.2512C670.701 28.0736 671.29 27.088 672.032 26.2944C672.8 25.5008 673.683 24.8864 674.682 24.4512C675.706 24.016 676.794 23.7984 677.946 23.7984C678.944 23.7984 679.891 23.9776 680.787 24.336C681.709 24.6944 682.502 25.232 683.168 25.9488C683.859 26.64 684.397 27.5232 684.781 28.5984C685.19 29.6736 685.395 30.928 685.395 32.3616C685.395 32.6176 685.395 32.912 685.395 33.2448C685.395 33.552 685.382 33.8208 685.357 34.0512H673.299C673.35 34.9728 673.53 35.7792 673.837 36.4704C674.144 37.136 674.528 37.6864 674.989 38.1216C675.475 38.5568 676.026 38.8768 676.64 39.0816C677.254 39.2864 677.894 39.3888 678.56 39.3888C679.149 39.3888 679.686 39.3376 680.173 39.2352C680.685 39.1072 681.171 38.9152 681.632 38.6592C682.093 38.4032 682.515 38.0576 682.899 37.6224L684.896 39.5808C684.358 40.2208 683.757 40.7584 683.091 41.1936C682.426 41.6032 681.696 41.9104 680.902 42.1152C680.134 42.32 679.302 42.4224 678.406 42.4224ZM673.376 31.1712H681.67C681.67 30.4544 681.581 29.8272 681.402 29.2896C681.222 28.752 680.954 28.2912 680.595 27.9072C680.262 27.5232 679.853 27.2416 679.366 27.0624C678.88 26.8576 678.342 26.7552 677.754 26.7552C677.19 26.7552 676.666 26.8448 676.179 27.024C675.718 27.2032 675.296 27.472 674.912 27.8304C674.528 28.1888 674.195 28.6496 673.914 29.2128C673.658 29.7504 673.478 30.4032 673.376 31.1712ZM697.069 42.4224C695.994 42.4224 694.982 42.32 694.035 42.1152C693.088 41.9104 692.192 41.6032 691.347 41.1936C690.528 40.784 689.773 40.2592 689.082 39.6192L690.848 36.3936L691.078 36.048L691.347 36.2016C691.398 36.4064 691.462 36.624 691.539 36.8544C691.616 37.0592 691.795 37.3152 692.077 37.6224C692.691 38.16 693.395 38.5952 694.189 38.928C694.982 39.2352 695.955 39.3888 697.107 39.3888C697.901 39.3888 698.566 39.2992 699.104 39.12C699.667 38.9152 700.102 38.6464 700.41 38.3136C700.717 37.9552 700.87 37.5584 700.87 37.1232C700.87 36.7904 700.781 36.5088 700.602 36.2784C700.448 36.0224 700.205 35.792 699.872 35.5872C699.539 35.3568 699.104 35.1392 698.566 34.9344C698.029 34.704 697.376 34.4864 696.608 34.2816C695.302 33.8976 694.163 33.4624 693.19 32.976C692.218 32.464 691.462 31.8624 690.925 31.1712C690.387 30.48 690.118 29.6608 690.118 28.7136C690.118 27.7664 690.387 26.9344 690.925 26.2176C691.488 25.4752 692.282 24.8864 693.306 24.4512C694.33 24.016 695.546 23.7984 696.954 23.7984C697.722 23.7984 698.438 23.8624 699.104 23.9904C699.795 24.0928 700.422 24.2592 700.986 24.4896C701.574 24.72 702.125 25.0144 702.637 25.3728C703.149 25.7056 703.635 26.1024 704.096 26.5632L702.138 29.1744L701.907 29.4816L701.638 29.2512C701.613 29.0464 701.549 28.8544 701.446 28.6752C701.37 28.496 701.19 28.2656 700.909 27.984C700.346 27.5744 699.731 27.2672 699.066 27.0624C698.4 26.8576 697.722 26.7552 697.03 26.7552C696.134 26.7552 695.341 26.9088 694.65 27.216C693.984 27.5232 693.651 27.984 693.651 28.5984C693.651 28.9568 693.792 29.2896 694.074 29.5968C694.381 29.904 694.867 30.2112 695.533 30.5184C696.198 30.8 697.107 31.0944 698.259 31.4016C699.718 31.7856 700.896 32.2336 701.792 32.7456C702.688 33.232 703.341 33.808 703.75 34.4736C704.186 35.1392 704.403 35.92 704.403 36.816C704.403 37.8144 704.122 38.7488 703.558 39.6192C703.021 40.464 702.202 41.1424 701.101 41.6544C700 42.1664 698.656 42.4224 697.069 42.4224Z" fill="#025464"/>
<path d="M543.239 108.822C541.651 108.822 540.205 108.515 538.899 107.901C537.594 107.261 536.557 106.314 535.789 105.059L538.554 102.909L538.823 102.678L539.053 102.909C539.027 103.114 539.053 103.306 539.13 103.485C539.232 103.664 539.411 103.92 539.667 104.253C540.128 104.739 540.64 105.11 541.203 105.366C541.792 105.597 542.483 105.712 543.277 105.712C543.866 105.712 544.403 105.597 544.89 105.366C545.402 105.11 545.85 104.765 546.234 104.33C546.618 103.894 546.912 103.382 547.117 102.794C547.322 102.179 547.424 101.514 547.424 100.797C547.424 100.029 547.322 99.3376 547.117 98.7232C546.912 98.0832 546.618 97.5456 546.234 97.1104C545.85 96.6752 545.389 96.3424 544.851 96.112C544.339 95.856 543.763 95.728 543.123 95.728C542.586 95.728 542.061 95.8048 541.549 95.9584C541.063 96.0864 540.602 96.304 540.167 96.6112C539.757 96.9184 539.373 97.2896 539.015 97.7248L536.711 97.0336L537.517 84.4768H550.112V87.6256H540.704L540.359 93.5392C540.717 93.3344 541.088 93.168 541.472 93.04C541.882 92.912 542.291 92.8224 542.701 92.7712C543.136 92.6944 543.546 92.656 543.93 92.656C544.979 92.656 545.939 92.8352 546.81 93.1936C547.68 93.552 548.435 94.0768 549.075 94.768C549.715 95.4336 550.202 96.2656 550.535 97.264C550.893 98.2368 551.072 99.3632 551.072 100.643C551.072 102.333 550.727 103.792 550.035 105.021C549.37 106.25 548.448 107.197 547.271 107.862C546.093 108.502 544.749 108.822 543.239 108.822Z" fill="#025464"/>
<path d="M364 65.6L712.8 66.4" stroke="#025464" stroke-width="2.4"/>
<path d="M317.6 124L759.2 124.8" stroke="#025464" stroke-width="2.4"/>
</svg>
