<svg width="945" height="116" viewBox="0 0 945 116" fill="none" xmlns="http://www.w3.org/2000/svg">
<g opacity="0.8">
<path d="M672.326 100.4V79.7024H665.798V76.4384H682.886V79.7024H676.051V100.4H672.326ZM687.456 100.4V97.3664H691.872V85.6544H687.648V82.6208H695.712V97.3664H699.744V100.4H687.456ZM693.561 79.4336C692.87 79.4336 692.281 79.2032 691.795 78.7424C691.334 78.256 691.104 77.6928 691.104 77.0528C691.104 76.3616 691.334 75.7856 691.795 75.3248C692.256 74.864 692.845 74.6336 693.561 74.6336C694.227 74.6336 694.803 74.8768 695.289 75.3632C695.801 75.8496 696.057 76.4128 696.057 77.0528C696.057 77.6928 695.801 78.256 695.289 78.7424C694.803 79.2032 694.227 79.4336 693.561 79.4336ZM704.467 100.4V82.6208H707.731V84.08C708.013 83.6704 708.32 83.3376 708.653 83.0816C709.011 82.8 709.382 82.5824 709.766 82.4288C710.176 82.2752 710.585 82.1984 710.995 82.1984C711.456 82.1984 711.891 82.288 712.301 82.4672C712.71 82.6464 713.069 82.9024 713.376 83.2352C713.683 83.568 713.913 84.0032 714.067 84.5408C714.323 84.0288 714.63 83.6064 714.989 83.2736C715.373 82.9408 715.808 82.6848 716.294 82.5056C716.806 82.3008 717.344 82.1984 717.907 82.1984C718.521 82.1984 719.046 82.3264 719.481 82.5824C719.942 82.8128 720.313 83.1456 720.595 83.5808C720.902 83.9904 721.12 84.5024 721.248 85.1168C721.401 85.7056 721.465 86.3712 721.44 87.1136V100.4H718.099V88.112C718.099 87.216 718.048 86.5504 717.945 86.1152C717.843 85.68 717.689 85.3856 717.485 85.232C717.305 85.0784 717.088 85.0016 716.832 85.0016C716.448 85.0016 716.077 85.1808 715.718 85.5392C715.385 85.872 715.104 86.3328 714.873 86.9216C714.669 87.5104 714.566 88.1632 714.566 88.88V100.4H711.341V88.2656C711.341 86.9344 711.225 86.0512 710.995 85.616C710.79 85.1808 710.419 84.9632 709.881 84.9632C709.625 84.9632 709.369 85.0528 709.113 85.232C708.883 85.3856 708.665 85.6288 708.461 85.9616C708.256 86.2688 708.089 86.6528 707.961 87.1136C707.859 87.5744 707.808 88.112 707.808 88.7264V100.4H704.467ZM732.806 100.822C731.526 100.822 730.349 100.618 729.273 100.208C728.198 99.7984 727.264 99.2096 726.47 98.4416C725.702 97.648 725.101 96.6752 724.665 95.5232C724.23 94.3712 724.013 93.0656 724.013 91.6064C724.013 90.1216 724.23 88.8032 724.665 87.6512C725.101 86.4736 725.689 85.488 726.432 84.6944C727.2 83.9008 728.083 83.2864 729.081 82.8512C730.105 82.416 731.193 82.1984 732.345 82.1984C733.344 82.1984 734.291 82.3776 735.187 82.736C736.109 83.0944 736.902 83.632 737.568 84.3488C738.259 85.04 738.797 85.9232 739.181 86.9984C739.59 88.0736 739.795 89.328 739.795 90.7616C739.795 91.0176 739.795 91.312 739.795 91.6448C739.795 91.952 739.782 92.2208 739.757 92.4512H727.699C727.75 93.3728 727.929 94.1792 728.237 94.8704C728.544 95.536 728.928 96.0864 729.389 96.5216C729.875 96.9568 730.425 97.2768 731.04 97.4816C731.654 97.6864 732.294 97.7888 732.96 97.7888C733.549 97.7888 734.086 97.7376 734.573 97.6352C735.085 97.5072 735.571 97.3152 736.032 97.0592C736.493 96.8032 736.915 96.4576 737.299 96.0224L739.296 97.9808C738.758 98.6208 738.157 99.1584 737.491 99.5936C736.825 100.003 736.096 100.31 735.302 100.515C734.534 100.72 733.702 100.822 732.806 100.822ZM727.776 89.5712H736.07C736.07 88.8544 735.981 88.2272 735.801 87.6896C735.622 87.152 735.353 86.6912 734.995 86.3072C734.662 85.9232 734.253 85.6416 733.766 85.4624C733.28 85.2576 732.742 85.1552 732.153 85.1552C731.59 85.1552 731.065 85.2448 730.579 85.424C730.118 85.6032 729.696 85.872 729.312 86.2304C728.928 86.5888 728.595 87.0496 728.313 87.6128C728.057 88.1504 727.878 88.8032 727.776 89.5712ZM776.006 104.509C773.651 103.459 771.654 102.09 770.016 100.4C768.377 98.7104 767.123 96.816 766.253 94.7168C765.408 92.592 764.985 90.3904 764.985 88.112C764.985 85.8336 765.408 83.6704 766.253 81.6224C767.097 79.5488 768.326 77.6928 769.939 76.0544C771.552 74.416 773.497 73.0848 775.776 72.0608L776.736 75.248C775.481 75.9136 774.355 76.6944 773.357 77.5904C772.384 78.4864 771.539 79.4848 770.822 80.5856C770.131 81.6864 769.593 82.8768 769.209 84.1568C768.851 85.4368 768.672 86.7936 768.672 88.2272C768.672 89.6608 768.864 91.0304 769.248 92.336C769.632 93.616 770.182 94.832 770.899 95.984C771.616 97.1104 772.486 98.1344 773.51 99.056C774.534 99.9776 775.699 100.758 777.005 101.398L776.006 104.509ZM781.267 100.4V82.6208H784.531V84.08C784.813 83.6704 785.12 83.3376 785.453 83.0816C785.811 82.8 786.182 82.5824 786.566 82.4288C786.976 82.2752 787.385 82.1984 787.795 82.1984C788.256 82.1984 788.691 82.288 789.101 82.4672C789.51 82.6464 789.869 82.9024 790.176 83.2352C790.483 83.568 790.713 84.0032 790.867 84.5408C791.123 84.0288 791.43 83.6064 791.789 83.2736C792.173 82.9408 792.608 82.6848 793.094 82.5056C793.606 82.3008 794.144 82.1984 794.707 82.1984C795.321 82.1984 795.846 82.3264 796.281 82.5824C796.742 82.8128 797.113 83.1456 797.395 83.5808C797.702 83.9904 797.92 84.5024 798.048 85.1168C798.201 85.7056 798.265 86.3712 798.24 87.1136V100.4H794.899V88.112C794.899 87.216 794.848 86.5504 794.745 86.1152C794.643 85.68 794.489 85.3856 794.285 85.232C794.105 85.0784 793.888 85.0016 793.632 85.0016C793.248 85.0016 792.877 85.1808 792.518 85.5392C792.185 85.872 791.904 86.3328 791.673 86.9216C791.469 87.5104 791.366 88.1632 791.366 88.88V100.4H788.141V88.2656C788.141 86.9344 788.025 86.0512 787.795 85.616C787.59 85.1808 787.219 84.9632 786.681 84.9632C786.425 84.9632 786.169 85.0528 785.913 85.232C785.683 85.3856 785.465 85.6288 785.261 85.9616C785.056 86.2688 784.889 86.6528 784.761 87.1136C784.659 87.5744 784.608 88.112 784.608 88.7264V100.4H781.267ZM802.656 100.4V97.3664H807.072V85.6544H802.848V82.6208H810.912V97.3664H814.944V100.4H802.656ZM808.761 79.4336C808.07 79.4336 807.481 79.2032 806.995 78.7424C806.534 78.256 806.304 77.6928 806.304 77.0528C806.304 76.3616 806.534 75.7856 806.995 75.3248C807.456 74.864 808.045 74.6336 808.761 74.6336C809.427 74.6336 810.003 74.8768 810.489 75.3632C811.001 75.8496 811.257 76.4128 811.257 77.0528C811.257 77.6928 811.001 78.256 810.489 78.7424C810.003 79.2032 809.427 79.4336 808.761 79.4336ZM820.704 100.4V82.6208H824.544V85.3472C824.979 84.7072 825.465 84.1568 826.003 83.696C826.541 83.2352 827.142 82.8768 827.808 82.6208C828.473 82.3392 829.19 82.1984 829.958 82.1984C830.957 82.1984 831.878 82.4544 832.723 82.9664C833.568 83.4784 834.246 84.2848 834.758 85.3856C835.27 86.4608 835.526 87.8944 835.526 89.6864V100.4H831.725V89.7248C831.725 88.6752 831.609 87.8176 831.379 87.152C831.149 86.4864 830.816 86 830.381 85.6928C829.971 85.3856 829.472 85.232 828.883 85.232C828.371 85.232 827.859 85.3472 827.347 85.5776C826.835 85.808 826.361 86.128 825.926 86.5376C825.517 86.9216 825.184 87.408 824.928 87.9968C824.672 88.56 824.544 89.2 824.544 89.9168V100.4H820.704ZM842.669 104.509L841.67 101.398C842.976 100.758 844.141 99.9776 845.165 99.056C846.189 98.1344 847.059 97.1104 847.776 95.984C848.493 94.832 849.043 93.616 849.427 92.336C849.811 91.0304 850.003 89.6608 850.003 88.2272C850.003 86.7936 849.811 85.4368 849.427 84.1568C849.069 82.8768 848.531 81.6864 847.814 80.5856C847.123 79.4848 846.278 78.4864 845.28 77.5904C844.307 76.6944 843.193 75.9136 841.939 75.248L842.899 72.0608C845.203 73.0848 847.149 74.416 848.736 76.0544C850.349 77.6928 851.577 79.5488 852.422 81.6224C853.267 83.6704 853.689 85.8336 853.689 88.112C853.689 90.3904 853.254 92.592 852.384 94.7168C851.539 96.816 850.297 98.7104 848.659 100.4C847.021 102.09 845.024 103.459 842.669 104.509Z" fill="#025464"/>
<path d="M597.6 42.4608C595.014 42.4608 593.03 41.6928 591.648 40.1568C590.265 38.5952 589.574 36.432 589.574 33.6672V18.0768H593.299H593.683V18.4224C593.529 18.576 593.427 18.7424 593.376 18.9216C593.35 19.1008 593.337 19.408 593.337 19.8432V33.7056C593.337 35.4464 593.645 36.8288 594.259 37.8528C594.899 38.8768 596.025 39.3888 597.638 39.3888C599.277 39.3888 600.416 38.8768 601.056 37.8528C601.696 36.8288 602.016 35.408 602.016 33.5904V18.0768H605.741V33.552C605.741 35.6 605.395 37.2768 604.704 38.5824C604.013 39.888 603.053 40.8608 601.824 41.5008C600.621 42.1408 599.213 42.4608 597.6 42.4608ZM609.504 42V24.2208H613.344V26.9472C613.779 26.3072 614.265 25.7568 614.803 25.296C615.341 24.8352 615.942 24.4768 616.608 24.2208C617.273 23.9392 617.99 23.7984 618.758 23.7984C619.757 23.7984 620.678 24.0544 621.523 24.5664C622.368 25.0784 623.046 25.8848 623.558 26.9856C624.07 28.0608 624.326 29.4944 624.326 31.2864V42H620.525V31.3248C620.525 30.2752 620.409 29.4176 620.179 28.752C619.949 28.0864 619.616 27.6 619.181 27.2928C618.771 26.9856 618.272 26.832 617.683 26.832C617.171 26.832 616.659 26.9472 616.147 27.1776C615.635 27.408 615.161 27.728 614.726 28.1376C614.317 28.5216 613.984 29.008 613.728 29.5968C613.472 30.16 613.344 30.8 613.344 31.5168V42H609.504ZM637.19 42.4224C635.885 42.4224 634.669 42.2048 633.542 41.7696C632.441 41.3088 631.481 40.6688 630.662 39.8496C629.869 39.0048 629.241 38.032 628.781 36.9312C628.345 35.8048 628.128 34.576 628.128 33.2448C628.128 31.9136 628.345 30.6848 628.781 29.5584C629.241 28.4064 629.869 27.408 630.662 26.5632C631.481 25.7184 632.441 25.0656 633.542 24.6048C634.669 24.1184 635.872 23.8752 637.152 23.8752C638.739 23.8752 640.121 24.1696 641.299 24.7584C642.502 25.3472 643.475 26.1792 644.217 27.2544L642.029 29.5584L641.76 29.8272L641.529 29.5968C641.504 29.392 641.453 29.2 641.376 29.0208C641.325 28.816 641.158 28.5472 640.877 28.2144C640.365 27.7536 639.801 27.4336 639.187 27.2544C638.573 27.0496 637.869 26.9472 637.075 26.9472C636.409 26.9472 635.769 27.088 635.155 27.3696C634.566 27.6512 634.029 28.0608 633.542 28.5984C633.081 29.136 632.71 29.7888 632.429 30.5568C632.147 31.3248 632.006 32.1824 632.006 33.1296C632.006 34.0512 632.147 34.896 632.429 35.664C632.71 36.4064 633.094 37.0464 633.581 37.584C634.067 38.096 634.63 38.5056 635.27 38.8128C635.936 39.0944 636.627 39.2352 637.344 39.2352C637.907 39.2352 638.445 39.1712 638.957 39.0432C639.494 38.8896 640.006 38.6592 640.493 38.352C640.979 38.0192 641.44 37.5968 641.875 37.0848L643.987 39.5424C643.065 40.5408 642.003 41.2704 640.8 41.7312C639.622 42.192 638.419 42.4224 637.19 42.4224ZM655.2 42.384C653.587 42.384 652.153 42 650.899 41.232C649.645 40.4384 648.646 39.3504 647.904 37.968C647.161 36.56 646.79 34.9472 646.79 33.1296C646.79 31.3376 647.161 29.7504 647.904 28.368C648.646 26.96 649.645 25.8592 650.899 25.0656C652.153 24.2464 653.587 23.8368 655.2 23.8368C656.787 23.8368 658.208 24.2464 659.462 25.0656C660.742 25.8592 661.753 26.96 662.496 28.368C663.238 29.7504 663.609 31.3376 663.609 33.1296C663.609 34.9216 663.238 36.5216 662.496 37.9296C661.753 39.312 660.742 40.4 659.462 41.1936C658.208 41.9872 656.787 42.384 655.2 42.384ZM655.2 39.2736C656.07 39.2736 656.838 39.0176 657.504 38.5056C658.195 37.968 658.733 37.2384 659.117 36.3168C659.501 35.3952 659.693 34.32 659.693 33.0912C659.693 31.8368 659.501 30.7488 659.117 29.8272C658.733 28.9056 658.195 28.1888 657.504 27.6768C656.838 27.1648 656.07 26.9088 655.2 26.9088C654.329 26.9088 653.549 27.1648 652.857 27.6768C652.192 28.1888 651.667 28.9056 651.283 29.8272C650.899 30.7488 650.707 31.8368 650.707 33.0912C650.707 34.32 650.899 35.3952 651.283 36.3168C651.667 37.2384 652.192 37.968 652.857 38.5056C653.549 39.0176 654.329 39.2736 655.2 39.2736ZM668.601 24.2208H672.557L672.48 29.2896L672.019 28.8672C672.147 28.0992 672.39 27.408 672.749 26.7936C673.107 26.1536 673.542 25.616 674.054 25.1808C674.592 24.7456 675.181 24.4128 675.821 24.1824C676.461 23.9264 677.126 23.7984 677.817 23.7984C678.79 23.7984 679.673 23.9648 680.467 24.2976C681.261 24.6304 681.977 25.1296 682.617 25.7952L681.005 28.944L680.851 29.2896L680.544 29.136C680.467 28.9312 680.39 28.7264 680.313 28.5216C680.237 28.3168 680.045 28.0736 679.737 27.792C679.353 27.536 678.969 27.344 678.585 27.216C678.227 27.088 677.805 27.024 677.318 27.024C676.704 27.024 676.102 27.1392 675.513 27.3696C674.95 27.5744 674.438 27.9072 673.977 28.368C673.517 28.8288 673.145 29.4176 672.864 30.1344C672.608 30.8256 672.48 31.6704 672.48 32.6688V42.0384H668.601V24.2208ZM687.801 24.2208H691.757L691.68 29.2896L691.219 28.8672C691.347 28.0992 691.59 27.408 691.949 26.7936C692.307 26.1536 692.742 25.616 693.254 25.1808C693.792 24.7456 694.381 24.4128 695.021 24.1824C695.661 23.9264 696.326 23.7984 697.017 23.7984C697.99 23.7984 698.873 23.9648 699.667 24.2976C700.461 24.6304 701.177 25.1296 701.817 25.7952L700.205 28.944L700.051 29.2896L699.744 29.136C699.667 28.9312 699.59 28.7264 699.513 28.5216C699.437 28.3168 699.245 28.0736 698.937 27.792C698.553 27.536 698.169 27.344 697.785 27.216C697.427 27.088 697.005 27.024 696.518 27.024C695.904 27.024 695.302 27.1392 694.713 27.3696C694.15 27.5744 693.638 27.9072 693.177 28.368C692.717 28.8288 692.345 29.4176 692.064 30.1344C691.808 30.8256 691.68 31.6704 691.68 32.6688V42.0384H687.801V24.2208ZM713.606 42.4224C712.326 42.4224 711.149 42.2176 710.073 41.808C708.998 41.3984 708.064 40.8096 707.27 40.0416C706.502 39.248 705.901 38.2752 705.465 37.1232C705.03 35.9712 704.813 34.6656 704.813 33.2064C704.813 31.7216 705.03 30.4032 705.465 29.2512C705.901 28.0736 706.489 27.088 707.232 26.2944C708 25.5008 708.883 24.8864 709.881 24.4512C710.905 24.016 711.993 23.7984 713.145 23.7984C714.144 23.7984 715.091 23.9776 715.987 24.336C716.909 24.6944 717.702 25.232 718.368 25.9488C719.059 26.64 719.597 27.5232 719.981 28.5984C720.39 29.6736 720.595 30.928 720.595 32.3616C720.595 32.6176 720.595 32.912 720.595 33.2448C720.595 33.552 720.582 33.8208 720.557 34.0512H708.499C708.55 34.9728 708.729 35.7792 709.037 36.4704C709.344 37.136 709.728 37.6864 710.189 38.1216C710.675 38.5568 711.225 38.8768 711.84 39.0816C712.454 39.2864 713.094 39.3888 713.76 39.3888C714.349 39.3888 714.886 39.3376 715.373 39.2352C715.885 39.1072 716.371 38.9152 716.832 38.6592C717.293 38.4032 717.715 38.0576 718.099 37.6224L720.096 39.5808C719.558 40.2208 718.957 40.7584 718.291 41.1936C717.625 41.6032 716.896 41.9104 716.102 42.1152C715.334 42.32 714.502 42.4224 713.606 42.4224ZM708.576 31.1712H716.87C716.87 30.4544 716.781 29.8272 716.601 29.2896C716.422 28.752 716.153 28.2912 715.795 27.9072C715.462 27.5232 715.053 27.2416 714.566 27.0624C714.08 26.8576 713.542 26.7552 712.953 26.7552C712.39 26.7552 711.865 26.8448 711.379 27.024C710.918 27.2032 710.496 27.472 710.112 27.8304C709.728 28.1888 709.395 28.6496 709.113 29.2128C708.857 29.7504 708.678 30.4032 708.576 31.1712ZM733.19 42.4224C731.885 42.4224 730.669 42.2048 729.542 41.7696C728.441 41.3088 727.481 40.6688 726.662 39.8496C725.869 39.0048 725.241 38.032 724.781 36.9312C724.345 35.8048 724.128 34.576 724.128 33.2448C724.128 31.9136 724.345 30.6848 724.781 29.5584C725.241 28.4064 725.869 27.408 726.662 26.5632C727.481 25.7184 728.441 25.0656 729.542 24.6048C730.669 24.1184 731.872 23.8752 733.152 23.8752C734.739 23.8752 736.121 24.1696 737.299 24.7584C738.502 25.3472 739.475 26.1792 740.217 27.2544L738.029 29.5584L737.76 29.8272L737.529 29.5968C737.504 29.392 737.453 29.2 737.376 29.0208C737.325 28.816 737.158 28.5472 736.877 28.2144C736.365 27.7536 735.801 27.4336 735.187 27.2544C734.573 27.0496 733.869 26.9472 733.075 26.9472C732.409 26.9472 731.769 27.088 731.155 27.3696C730.566 27.6512 730.029 28.0608 729.542 28.5984C729.081 29.136 728.71 29.7888 728.429 30.5568C728.147 31.3248 728.006 32.1824 728.006 33.1296C728.006 34.0512 728.147 34.896 728.429 35.664C728.71 36.4064 729.094 37.0464 729.581 37.584C730.067 38.096 730.63 38.5056 731.27 38.8128C731.936 39.0944 732.627 39.2352 733.344 39.2352C733.907 39.2352 734.445 39.1712 734.957 39.0432C735.494 38.8896 736.006 38.6592 736.493 38.352C736.979 38.0192 737.44 37.5968 737.875 37.0848L739.987 39.5424C739.065 40.5408 738.003 41.2704 736.8 41.7312C735.622 42.192 734.419 42.4224 733.19 42.4224ZM753.081 42.3456C752.032 42.3456 751.123 42.1792 750.355 41.8464C749.613 41.488 749.011 40.9248 748.55 40.1568C748.115 39.3888 747.808 38.3904 747.629 37.1616C747.449 35.9328 747.385 34.4352 747.437 32.6688L747.936 19.92L751.853 19.4208L752.237 19.3824L752.275 19.728C752.147 19.9072 752.032 20.0864 751.929 20.2656C751.853 20.4448 751.789 20.752 751.737 21.1872L751.353 26.1408L751.507 26.5632L751.238 32.6688C751.161 34.4096 751.213 35.7664 751.392 36.7392C751.571 37.6864 751.878 38.352 752.313 38.736C752.749 39.0944 753.273 39.2736 753.888 39.2736C754.707 39.2736 755.437 39.1072 756.077 38.7744C756.742 38.4416 757.395 38.032 758.035 37.5456L758.88 40.3872C758.009 41.0272 757.101 41.5136 756.153 41.8464C755.206 42.1792 754.182 42.3456 753.081 42.3456ZM743.981 24.2208H757.382L757.344 27.2928H743.981V24.2208ZM771.206 42.4224C769.926 42.4224 768.749 42.2176 767.673 41.808C766.598 41.3984 765.664 40.8096 764.87 40.0416C764.102 39.248 763.501 38.2752 763.065 37.1232C762.63 35.9712 762.413 34.6656 762.413 33.2064C762.413 31.7216 762.63 30.4032 763.065 29.2512C763.501 28.0736 764.089 27.088 764.832 26.2944C765.6 25.5008 766.483 24.8864 767.481 24.4512C768.505 24.016 769.593 23.7984 770.745 23.7984C771.744 23.7984 772.691 23.9776 773.587 24.336C774.509 24.6944 775.302 25.232 775.968 25.9488C776.659 26.64 777.197 27.5232 777.581 28.5984C777.99 29.6736 778.195 30.928 778.195 32.3616C778.195 32.6176 778.195 32.912 778.195 33.2448C778.195 33.552 778.182 33.8208 778.157 34.0512H766.099C766.15 34.9728 766.329 35.7792 766.637 36.4704C766.944 37.136 767.328 37.6864 767.789 38.1216C768.275 38.5568 768.825 38.8768 769.44 39.0816C770.054 39.2864 770.694 39.3888 771.36 39.3888C771.949 39.3888 772.486 39.3376 772.973 39.2352C773.485 39.1072 773.971 38.9152 774.432 38.6592C774.893 38.4032 775.315 38.0576 775.699 37.6224L777.696 39.5808C777.158 40.2208 776.557 40.7584 775.891 41.1936C775.225 41.6032 774.496 41.9104 773.702 42.1152C772.934 42.32 772.102 42.4224 771.206 42.4224ZM766.176 31.1712H774.47C774.47 30.4544 774.381 29.8272 774.201 29.2896C774.022 28.752 773.753 28.2912 773.395 27.9072C773.062 27.5232 772.653 27.2416 772.166 27.0624C771.68 26.8576 771.142 26.7552 770.553 26.7552C769.99 26.7552 769.465 26.8448 768.979 27.024C768.518 27.2032 768.096 27.472 767.712 27.8304C767.328 28.1888 766.995 28.6496 766.713 29.2128C766.457 29.7504 766.278 30.4032 766.176 31.1712ZM788.755 42.4224C787.808 42.4224 786.886 42.2304 785.99 41.8464C785.12 41.4368 784.339 40.848 783.648 40.08C782.957 39.312 782.406 38.3392 781.997 37.1616C781.613 35.9584 781.421 34.576 781.421 33.0144C781.421 31.4272 781.613 30.0576 781.997 28.9056C782.406 27.7536 782.957 26.8064 783.648 26.064C784.339 25.296 785.133 24.7328 786.029 24.3744C786.925 23.9904 787.859 23.7984 788.832 23.7984C789.523 23.7984 790.15 23.888 790.713 24.0672C791.302 24.2464 791.827 24.5152 792.288 24.8736C792.749 25.232 793.12 25.68 793.401 26.2176V16.3104H797.126H797.472V16.656C797.344 16.8096 797.254 16.976 797.203 17.1552C797.152 17.3344 797.139 17.6416 797.165 18.0768V39.504C797.165 39.9136 797.177 40.336 797.203 40.7712C797.254 41.1808 797.369 41.5904 797.549 42H793.785C793.657 41.7184 793.568 41.4624 793.517 41.232C793.465 41.0016 793.44 40.7712 793.44 40.5408C793.44 40.3104 793.44 40.0672 793.44 39.8112C793.081 40.3488 792.672 40.8224 792.211 41.232C791.75 41.616 791.225 41.9104 790.637 42.1152C790.048 42.32 789.421 42.4224 788.755 42.4224ZM789.408 39.2736C790.099 39.2736 790.688 39.1328 791.174 38.8512C791.661 38.5696 792.057 38.16 792.365 37.6224C792.672 37.0848 792.902 36.432 793.056 35.664C793.209 34.896 793.286 34.0256 793.286 33.0528C793.286 31.7472 793.145 30.6336 792.864 29.712C792.582 28.7648 792.134 28.048 791.52 27.5616C790.931 27.0496 790.176 26.7936 789.254 26.7936C788.589 26.7936 788 26.9344 787.488 27.216C786.976 27.4976 786.541 27.9072 786.182 28.4448C785.849 28.9568 785.593 29.584 785.414 30.3264C785.235 31.0688 785.145 31.9008 785.145 32.8224C785.145 34.128 785.325 35.2672 785.683 36.24C786.067 37.2128 786.579 37.968 787.219 38.5056C787.859 39.0176 788.589 39.2736 789.408 39.2736ZM820.473 42V18.0384H835.718V21.1872H824.121V27.9456H833.683V31.1328H824.121V38.8512H835.641V42H820.473ZM841.401 24.2208H845.357L845.28 29.2896L844.819 28.8672C844.947 28.0992 845.19 27.408 845.549 26.7936C845.907 26.1536 846.342 25.616 846.854 25.1808C847.392 24.7456 847.981 24.4128 848.621 24.1824C849.261 23.9264 849.926 23.7984 850.617 23.7984C851.59 23.7984 852.473 23.9648 853.267 24.2976C854.061 24.6304 854.777 25.1296 855.417 25.7952L853.805 28.944L853.651 29.2896L853.344 29.136C853.267 28.9312 853.19 28.7264 853.113 28.5216C853.037 28.3168 852.845 28.0736 852.537 27.792C852.153 27.536 851.769 27.344 851.385 27.216C851.027 27.088 850.605 27.024 850.118 27.024C849.504 27.024 848.902 27.1392 848.313 27.3696C847.75 27.5744 847.238 27.9072 846.777 28.368C846.317 28.8288 845.945 29.4176 845.664 30.1344C845.408 30.8256 845.28 31.6704 845.28 32.6688V42.0384H841.401V24.2208ZM860.601 24.2208H864.557L864.48 29.2896L864.019 28.8672C864.147 28.0992 864.39 27.408 864.749 26.7936C865.107 26.1536 865.542 25.616 866.054 25.1808C866.592 24.7456 867.181 24.4128 867.821 24.1824C868.461 23.9264 869.126 23.7984 869.817 23.7984C870.79 23.7984 871.673 23.9648 872.467 24.2976C873.261 24.6304 873.977 25.1296 874.617 25.7952L873.005 28.944L872.851 29.2896L872.544 29.136C872.467 28.9312 872.39 28.7264 872.313 28.5216C872.237 28.3168 872.045 28.0736 871.737 27.792C871.353 27.536 870.969 27.344 870.585 27.216C870.227 27.088 869.805 27.024 869.318 27.024C868.704 27.024 868.102 27.1392 867.513 27.3696C866.95 27.5744 866.438 27.9072 865.977 28.368C865.517 28.8288 865.145 29.4176 864.864 30.1344C864.608 30.8256 864.48 31.6704 864.48 32.6688V42.0384H860.601V24.2208ZM885.6 42.384C883.987 42.384 882.553 42 881.299 41.232C880.045 40.4384 879.046 39.3504 878.304 37.968C877.561 36.56 877.19 34.9472 877.19 33.1296C877.19 31.3376 877.561 29.7504 878.304 28.368C879.046 26.96 880.045 25.8592 881.299 25.0656C882.553 24.2464 883.987 23.8368 885.6 23.8368C887.187 23.8368 888.608 24.2464 889.862 25.0656C891.142 25.8592 892.153 26.96 892.896 28.368C893.638 29.7504 894.009 31.3376 894.009 33.1296C894.009 34.9216 893.638 36.5216 892.896 37.9296C892.153 39.312 891.142 40.4 889.862 41.1936C888.608 41.9872 887.187 42.384 885.6 42.384ZM885.6 39.2736C886.47 39.2736 887.238 39.0176 887.904 38.5056C888.595 37.968 889.133 37.2384 889.517 36.3168C889.901 35.3952 890.093 34.32 890.093 33.0912C890.093 31.8368 889.901 30.7488 889.517 29.8272C889.133 28.9056 888.595 28.1888 887.904 27.6768C887.238 27.1648 886.47 26.9088 885.6 26.9088C884.729 26.9088 883.949 27.1648 883.257 27.6768C882.592 28.1888 882.067 28.9056 881.683 29.8272C881.299 30.7488 881.107 31.8368 881.107 33.0912C881.107 34.32 881.299 35.3952 881.683 36.3168C882.067 37.2384 882.592 37.968 883.257 38.5056C883.949 39.0176 884.729 39.2736 885.6 39.2736ZM899.001 24.2208H902.957L902.88 29.2896L902.419 28.8672C902.547 28.0992 902.79 27.408 903.149 26.7936C903.507 26.1536 903.942 25.616 904.454 25.1808C904.992 24.7456 905.581 24.4128 906.221 24.1824C906.861 23.9264 907.526 23.7984 908.217 23.7984C909.19 23.7984 910.073 23.9648 910.867 24.2976C911.661 24.6304 912.377 25.1296 913.017 25.7952L911.405 28.944L911.251 29.2896L910.944 29.136C910.867 28.9312 910.79 28.7264 910.713 28.5216C910.637 28.3168 910.445 28.0736 910.137 27.792C909.753 27.536 909.369 27.344 908.985 27.216C908.627 27.088 908.205 27.024 907.718 27.024C907.104 27.024 906.502 27.1392 905.913 27.3696C905.35 27.5744 904.838 27.9072 904.377 28.368C903.917 28.8288 903.545 29.4176 903.264 30.1344C903.008 30.8256 902.88 31.6704 902.88 32.6688V42.0384H899.001V24.2208ZM924.269 42.4224C923.193 42.4224 922.182 42.32 921.235 42.1152C920.288 41.9104 919.392 41.6032 918.547 41.1936C917.728 40.784 916.973 40.2592 916.281 39.6192L918.048 36.3936L918.278 36.048L918.547 36.2016C918.598 36.4064 918.662 36.624 918.739 36.8544C918.816 37.0592 918.995 37.3152 919.277 37.6224C919.891 38.16 920.595 38.5952 921.389 38.928C922.182 39.2352 923.155 39.3888 924.307 39.3888C925.101 39.3888 925.766 39.2992 926.304 39.12C926.867 38.9152 927.302 38.6464 927.609 38.3136C927.917 37.9552 928.07 37.5584 928.07 37.1232C928.07 36.7904 927.981 36.5088 927.801 36.2784C927.648 36.0224 927.405 35.792 927.072 35.5872C926.739 35.3568 926.304 35.1392 925.766 34.9344C925.229 34.704 924.576 34.4864 923.808 34.2816C922.502 33.8976 921.363 33.4624 920.39 32.976C919.417 32.464 918.662 31.8624 918.125 31.1712C917.587 30.48 917.318 29.6608 917.318 28.7136C917.318 27.7664 917.587 26.9344 918.125 26.2176C918.688 25.4752 919.481 24.8864 920.505 24.4512C921.529 24.016 922.745 23.7984 924.153 23.7984C924.921 23.7984 925.638 23.8624 926.304 23.9904C926.995 24.0928 927.622 24.2592 928.185 24.4896C928.774 24.72 929.325 25.0144 929.837 25.3728C930.349 25.7056 930.835 26.1024 931.296 26.5632L929.337 29.1744L929.107 29.4816L928.838 29.2512C928.813 29.0464 928.749 28.8544 928.646 28.6752C928.569 28.496 928.39 28.2656 928.109 27.984C927.545 27.5744 926.931 27.2672 926.265 27.0624C925.6 26.8576 924.921 26.7552 924.23 26.7552C923.334 26.7552 922.541 26.9088 921.849 27.216C921.184 27.5232 920.851 27.984 920.851 28.5984C920.851 28.9568 920.992 29.2896 921.273 29.5968C921.581 29.904 922.067 30.2112 922.733 30.5184C923.398 30.8 924.307 31.0944 925.459 31.4016C926.918 31.7856 928.096 32.2336 928.992 32.7456C929.888 33.232 930.541 33.808 930.95 34.4736C931.385 35.1392 931.603 35.92 931.603 36.816C931.603 37.8144 931.321 38.7488 930.758 39.6192C930.221 40.464 929.401 41.1424 928.301 41.6544C927.2 42.1664 925.856 42.4224 924.269 42.4224Z" fill="#025464"/>
<path d="M2.0992 43.1024H7.2704L18.9952 65.016L18.7904 43.1024H23.3472H23.8592V43.5632C23.6544 43.768 23.5179 43.9899 23.4496 44.2288C23.4155 44.4677 23.3984 44.8773 23.3984 45.4576V75H18.8928L6.7072 51.7552V75H2.0992V43.1024ZM39.4752 75.5632C37.7685 75.5632 36.1984 75.2901 34.7648 74.744C33.3312 74.1979 32.0853 73.4128 31.0272 72.3888C30.0032 71.3307 29.2011 70.0336 28.6208 68.4976C28.0405 66.9616 27.7504 65.2208 27.7504 63.2752C27.7504 61.2955 28.0405 59.5376 28.6208 58.0016C29.2011 56.4315 29.9861 55.1173 30.976 54.0592C32 53.0011 33.1776 52.1819 34.5088 51.6016C35.8741 51.0213 37.3248 50.7312 38.8608 50.7312C40.192 50.7312 41.4549 50.9701 42.6496 51.448C43.8784 51.9259 44.9365 52.6427 45.824 53.5984C46.7456 54.52 47.4624 55.6976 47.9744 57.1312C48.5205 58.5648 48.7936 60.2373 48.7936 62.1488C48.7936 62.4901 48.7936 62.8827 48.7936 63.3264C48.7936 63.736 48.7765 64.0944 48.7424 64.4016H32.6656C32.7339 65.6304 32.9728 66.7056 33.3824 67.6272C33.792 68.5147 34.304 69.2485 34.9184 69.8288C35.5669 70.4091 36.3008 70.8357 37.12 71.1088C37.9392 71.3819 38.7925 71.5184 39.68 71.5184C40.4651 71.5184 41.1819 71.4501 41.8304 71.3136C42.5131 71.1429 43.1616 70.8869 43.776 70.5456C44.3904 70.2043 44.9536 69.7435 45.4656 69.1632L48.128 71.7744C47.4112 72.6277 46.6091 73.3445 45.7216 73.9248C44.8341 74.4709 43.8613 74.8805 42.8032 75.1536C41.7792 75.4267 40.6699 75.5632 39.4752 75.5632ZM32.768 60.5616H43.8272C43.8272 59.6059 43.7077 58.7696 43.4688 58.0528C43.2299 57.336 42.8715 56.7216 42.3936 56.2096C41.9499 55.6976 41.4037 55.3221 40.7552 55.0832C40.1067 54.8101 39.3899 54.6736 38.6048 54.6736C37.8539 54.6736 37.1541 54.7931 36.5056 55.032C35.8912 55.2709 35.328 55.6293 34.816 56.1072C34.304 56.5851 33.8603 57.1995 33.4848 57.9504C33.1435 58.6672 32.9045 59.5376 32.768 60.5616ZM66.5088 75.4608C65.1093 75.4608 63.8976 75.2389 62.8736 74.7952C61.8837 74.3173 61.0816 73.5664 60.4672 72.5424C59.8869 71.5184 59.4773 70.1872 59.2384 68.5488C58.9995 66.9104 58.9141 64.9136 58.9824 62.5584L59.648 45.56L64.8704 44.8944L65.3824 44.8432L65.4336 45.304C65.2629 45.5429 65.1093 45.7819 64.9728 46.0208C64.8704 46.2597 64.7851 46.6693 64.7168 47.2496L64.2048 53.8544L64.4096 54.4176L64.0512 62.5584C63.9488 64.8795 64.0171 66.6885 64.256 67.9856C64.4949 69.2485 64.9045 70.136 65.4848 70.648C66.0651 71.1259 66.7648 71.3648 67.584 71.3648C68.6763 71.3648 69.6491 71.1429 70.5024 70.6992C71.3899 70.2555 72.2603 69.7093 73.1136 69.0608L74.24 72.8496C73.0795 73.7029 71.8677 74.3515 70.6048 74.7952C69.3419 75.2389 67.9765 75.4608 66.5088 75.4608ZM54.3744 51.2944H72.2432L72.192 55.3904H54.3744V51.2944ZM107.571 75L103.066 43.1024H107.469L110.08 63.6336L114.534 45.56H116.89L121.395 63.6336L123.443 43.1024H127.59L123.187 75H120.32L115.456 54.9296L110.541 75H107.571ZM130.611 75V43.1024H141.312C143.735 43.1024 145.715 43.5291 147.251 44.3824C148.821 45.2016 149.982 46.3109 150.733 47.7104C151.484 49.1099 151.859 50.6459 151.859 52.3184C151.859 53.5813 151.654 54.7589 151.245 55.8512C150.835 56.9435 150.204 57.9163 149.35 58.7696C148.531 59.5888 147.473 60.2373 146.176 60.7152C144.879 61.1589 143.343 61.3808 141.568 61.3808H135.782V75H130.611ZM135.782 57.1312H141.158C142.421 57.1312 143.445 56.9435 144.23 56.568C145.05 56.1584 145.664 55.5952 146.074 54.8784C146.483 54.1275 146.688 53.2912 146.688 52.3696C146.688 51.448 146.483 50.6288 146.074 49.912C145.664 49.1952 145.05 48.632 144.23 48.2224C143.445 47.7787 142.438 47.5568 141.21 47.5568H135.782V57.1312ZM155.392 75V43.1024H159.693L166.451 58.0528L173.312 43.0512H177.562V75H173.107V52.1136L167.475 64.248H165.12L159.795 52.216V75H155.392ZM207.002 55.4928V51.4992H228.301V55.4928H207.002ZM207.002 66.1936V62.1488H228.301V66.1936H207.002ZM270.182 75.5632C267.554 75.5632 265.284 74.8976 263.373 73.5664C261.461 72.2011 259.994 70.2896 258.97 67.832C257.98 65.3744 257.485 62.5243 257.485 59.2816C257.451 56.5509 257.707 54.2299 258.253 52.3184C258.833 50.3728 259.584 48.7685 260.506 47.5056C261.427 46.2427 262.451 45.2528 263.578 44.536C264.704 43.8192 265.83 43.3243 266.957 43.0512C268.083 42.7781 269.124 42.6416 270.08 42.6416C271.411 42.6416 272.708 42.8635 273.971 43.3072C275.234 43.7509 276.378 44.3824 277.402 45.2016C278.46 45.9867 279.296 46.9595 279.91 48.12L276.838 51.0384L276.429 51.3968L276.122 51.0384C276.156 50.7653 276.122 50.5093 276.019 50.2704C275.917 50.0315 275.695 49.6901 275.354 49.2464C274.91 48.7344 274.432 48.3077 273.92 47.9664C273.442 47.6251 272.896 47.3691 272.282 47.1984C271.667 46.9936 270.95 46.8912 270.131 46.8912C269.312 46.8912 268.527 47.0277 267.776 47.3008C267.025 47.5397 266.325 47.9493 265.677 48.5296C265.028 49.0757 264.465 49.8096 263.987 50.7312C263.509 51.6528 263.134 52.7792 262.861 54.1104C262.588 55.4075 262.451 56.9264 262.451 58.6672C262.451 60.7835 262.639 62.6267 263.014 64.1968C263.39 65.7669 263.902 67.0811 264.55 68.1392C265.233 69.1973 266.052 69.9995 267.008 70.5456C267.964 71.0917 269.022 71.3648 270.182 71.3648C270.592 71.3648 271.019 71.3307 271.462 71.2624C271.94 71.1941 272.401 71.1088 272.845 71.0064C273.323 70.8699 273.766 70.6821 274.176 70.4432C274.62 70.2043 275.029 69.9483 275.405 69.6752V63.1728H269.978V58.9744H279.962V72.2352C278.46 73.3957 276.873 74.2491 275.2 74.7952C273.562 75.3072 271.889 75.5632 270.182 75.5632ZM286.669 51.2944H291.942L291.84 58.0528L291.226 57.4896C291.396 56.4656 291.721 55.544 292.198 54.7248C292.676 53.8715 293.257 53.1547 293.939 52.5744C294.656 51.9941 295.441 51.5504 296.294 51.2432C297.148 50.9019 298.035 50.7312 298.957 50.7312C300.254 50.7312 301.431 50.9531 302.49 51.3968C303.548 51.8405 304.503 52.5061 305.357 53.3936L303.206 57.592L303.002 58.0528L302.592 57.848C302.49 57.5749 302.387 57.3019 302.285 57.0288C302.182 56.7557 301.926 56.4315 301.517 56.056C301.005 55.7147 300.493 55.4587 299.981 55.288C299.503 55.1173 298.94 55.032 298.291 55.032C297.472 55.032 296.67 55.1856 295.885 55.4928C295.134 55.7659 294.451 56.2096 293.837 56.824C293.222 57.4384 292.727 58.2235 292.352 59.1792C292.011 60.1008 291.84 61.2272 291.84 62.5584V75.0512H286.669V51.2944ZM320 75.512C317.85 75.512 315.938 75 314.266 73.976C312.593 72.9179 311.262 71.4672 310.272 69.624C309.282 67.7467 308.787 65.5963 308.787 63.1728C308.787 60.7835 309.282 58.6672 310.272 56.824C311.262 54.9467 312.593 53.4789 314.266 52.4208C315.938 51.3285 317.85 50.7824 320 50.7824C322.116 50.7824 324.011 51.3285 325.683 52.4208C327.39 53.4789 328.738 54.9467 329.728 56.824C330.718 58.6672 331.213 60.7835 331.213 63.1728C331.213 65.5621 330.718 67.6955 329.728 69.5728C328.738 71.416 327.39 72.8667 325.683 73.9248C324.011 74.9829 322.116 75.512 320 75.512ZM320 71.3648C321.161 71.3648 322.185 71.0235 323.072 70.3408C323.994 69.624 324.71 68.6512 325.222 67.4224C325.734 66.1936 325.99 64.76 325.99 63.1216C325.99 61.4491 325.734 59.9984 325.222 58.7696C324.71 57.5408 323.994 56.5851 323.072 55.9024C322.185 55.2197 321.161 54.8784 320 54.8784C318.839 54.8784 317.798 55.2197 316.877 55.9024C315.989 56.5851 315.29 57.5408 314.778 58.7696C314.266 59.9984 314.01 61.4491 314.01 63.1216C314.01 64.76 314.266 66.1936 314.778 67.4224C315.29 68.6512 315.989 69.624 316.877 70.3408C317.798 71.0235 318.839 71.3648 320 71.3648ZM345.958 75.5632C344.525 75.5632 343.177 75.4267 341.914 75.1536C340.651 74.8805 339.456 74.4709 338.33 73.9248C337.237 73.3787 336.23 72.6789 335.309 71.8256L337.664 67.5248L337.971 67.064L338.33 67.2688C338.398 67.5419 338.483 67.832 338.586 68.1392C338.688 68.4123 338.927 68.7536 339.302 69.1632C340.122 69.88 341.06 70.4603 342.118 70.904C343.177 71.3136 344.474 71.5184 346.01 71.5184C347.068 71.5184 347.955 71.3989 348.672 71.16C349.423 70.8869 350.003 70.5285 350.413 70.0848C350.822 69.6069 351.027 69.0779 351.027 68.4976C351.027 68.0539 350.908 67.6784 350.669 67.3712C350.464 67.0299 350.14 66.7227 349.696 66.4496C349.252 66.1424 348.672 65.8523 347.955 65.5792C347.238 65.272 346.368 64.9819 345.344 64.7088C343.603 64.1968 342.084 63.6165 340.787 62.968C339.49 62.2853 338.483 61.4832 337.766 60.5616C337.05 59.64 336.691 58.5477 336.691 57.2848C336.691 56.0219 337.05 54.9125 337.766 53.9568C338.517 52.9669 339.575 52.1819 340.941 51.6016C342.306 51.0213 343.927 50.7312 345.805 50.7312C346.829 50.7312 347.785 50.8165 348.672 50.9872C349.594 51.1237 350.43 51.3456 351.181 51.6528C351.966 51.96 352.7 52.3525 353.382 52.8304C354.065 53.2741 354.714 53.8032 355.328 54.4176L352.717 57.8992L352.41 58.3088L352.051 58.0016C352.017 57.7285 351.932 57.4725 351.795 57.2336C351.693 56.9947 351.454 56.6875 351.078 56.312C350.327 55.7659 349.508 55.3563 348.621 55.0832C347.733 54.8101 346.829 54.6736 345.907 54.6736C344.713 54.6736 343.654 54.8784 342.733 55.288C341.845 55.6976 341.402 56.312 341.402 57.1312C341.402 57.6091 341.589 58.0528 341.965 58.4624C342.374 58.872 343.023 59.2816 343.91 59.6912C344.798 60.0667 346.01 60.4592 347.546 60.8688C349.491 61.3808 351.061 61.9781 352.256 62.6608C353.451 63.3093 354.321 64.0773 354.867 64.9648C355.447 65.8523 355.738 66.8933 355.738 68.088C355.738 69.4192 355.362 70.6651 354.611 71.8256C353.894 72.952 352.802 73.8565 351.334 74.5392C349.867 75.2219 348.075 75.5632 345.958 75.5632ZM371.558 75.5632C370.125 75.5632 368.777 75.4267 367.514 75.1536C366.251 74.8805 365.056 74.4709 363.93 73.9248C362.837 73.3787 361.83 72.6789 360.909 71.8256L363.264 67.5248L363.571 67.064L363.93 67.2688C363.998 67.5419 364.083 67.832 364.186 68.1392C364.288 68.4123 364.527 68.7536 364.902 69.1632C365.722 69.88 366.66 70.4603 367.718 70.904C368.777 71.3136 370.074 71.5184 371.61 71.5184C372.668 71.5184 373.555 71.3989 374.272 71.16C375.023 70.8869 375.603 70.5285 376.013 70.0848C376.422 69.6069 376.627 69.0779 376.627 68.4976C376.627 68.0539 376.508 67.6784 376.269 67.3712C376.064 67.0299 375.74 66.7227 375.296 66.4496C374.852 66.1424 374.272 65.8523 373.555 65.5792C372.838 65.272 371.968 64.9819 370.944 64.7088C369.203 64.1968 367.684 63.6165 366.387 62.968C365.09 62.2853 364.083 61.4832 363.366 60.5616C362.65 59.64 362.291 58.5477 362.291 57.2848C362.291 56.0219 362.65 54.9125 363.366 53.9568C364.117 52.9669 365.175 52.1819 366.541 51.6016C367.906 51.0213 369.527 50.7312 371.405 50.7312C372.429 50.7312 373.385 50.8165 374.272 50.9872C375.194 51.1237 376.03 51.3456 376.781 51.6528C377.566 51.96 378.3 52.3525 378.982 52.8304C379.665 53.2741 380.314 53.8032 380.928 54.4176L378.317 57.8992L378.01 58.3088L377.651 58.0016C377.617 57.7285 377.532 57.4725 377.395 57.2336C377.293 56.9947 377.054 56.6875 376.678 56.312C375.927 55.7659 375.108 55.3563 374.221 55.0832C373.333 54.8101 372.429 54.6736 371.507 54.6736C370.313 54.6736 369.254 54.8784 368.333 55.288C367.445 55.6976 367.002 56.312 367.002 57.1312C367.002 57.6091 367.189 58.0528 367.565 58.4624C367.974 58.872 368.623 59.2816 369.51 59.6912C370.398 60.0667 371.61 60.4592 373.146 60.8688C375.091 61.3808 376.661 61.9781 377.856 62.6608C379.051 63.3093 379.921 64.0773 380.467 64.9648C381.047 65.8523 381.338 66.8933 381.338 68.088C381.338 69.4192 380.962 70.6651 380.211 71.8256C379.494 72.952 378.402 73.8565 376.934 74.5392C375.467 75.2219 373.675 75.5632 371.558 75.5632ZM414.771 75L410.266 43.1024H414.669L417.28 63.6336L421.734 45.56H424.09L428.595 63.6336L430.643 43.1024H434.79L430.387 75H427.52L422.656 54.9296L417.741 75H414.771ZM437.811 75V43.1024H448.512C450.935 43.1024 452.915 43.5291 454.451 44.3824C456.021 45.2016 457.182 46.3109 457.933 47.7104C458.684 49.1099 459.059 50.6459 459.059 52.3184C459.059 53.5813 458.854 54.7589 458.445 55.8512C458.035 56.9435 457.404 57.9163 456.55 58.7696C455.731 59.5888 454.673 60.2373 453.376 60.7152C452.079 61.1589 450.543 61.3808 448.768 61.3808H442.982V75H437.811ZM442.982 57.1312H448.358C449.621 57.1312 450.645 56.9435 451.43 56.568C452.25 56.1584 452.864 55.5952 453.274 54.8784C453.683 54.1275 453.888 53.2912 453.888 52.3696C453.888 51.448 453.683 50.6288 453.274 49.912C452.864 49.1952 452.25 48.632 451.43 48.2224C450.645 47.7787 449.638 47.5568 448.41 47.5568H442.982V57.1312ZM462.592 75V43.1024H466.893L473.651 58.0528L480.512 43.0512H484.762V75H480.307V52.1136L474.675 64.248H472.32L466.995 52.216V75H462.592Z" fill="#025464"/>
<path d="M567.2 58.4L944.8 57.6" stroke="#025464" stroke-width="2.4"/>
<path d="M510.4 59.2H539.2" stroke="#025464" stroke-width="2.4"/>
</g>
</svg>
